<svg xmlns="http://www.w3.org/2000/svg" width="940" height="680" viewBox="0 0 940 680" role="img" aria-labelledby="title desc">
  <title id="title">Benchmark-driven loop-coherence and curve-memory scenario comparison</title>
  <desc id="desc">Four scenario comparison driven by the flat-channel loop-signature benchmark trace.</desc>
  <rect width="100%" height="100%" fill="#f8fafc"/>
  <text x="80" y="42" font-size="28" font-family="Georgia" fill="#0f172a">Benchmark-Driven Scenario Suite</text>
  <text x="80" y="66" font-size="14" font-family="Georgia" fill="#334155">Parent, loop-only, memory-only, and full stabilized laws under a vendored flat-channel forcing trace.</text>
  <text x="80" y="78" font-size="18" font-family="Georgia">Conductance magnitude</text>
<line x1="80" y1="90" x2="80" y2="260" stroke="#1f2937" stroke-width="1.5"/>
<line x1="80" y1="260" x2="860" y2="260" stroke="#1f2937" stroke-width="1.5"/>
<line x1="340.00" y1="90" x2="340.00" y2="260" stroke="#b45309" stroke-width="1.2" stroke-dasharray="6 6"/>
<text x="348.00" y="106" font-size="12" fill="#92400e" font-family="Georgia">damage center</text>
  <polyline fill="none" stroke="#9a3412" stroke-width="2.4" points="80.00,260.00 93.00,246.70 106.00,238.10 119.00,226.85 132.00,218.95 145.00,209.46 158.00,202.88 171.00,195.02 184.00,189.45 197.00,182.84 210.00,178.02 223.00,172.39 236.00,168.16 249.00,163.35 262.00,159.68 275.00,155.59 288.00,152.39 301.00,148.86 314.00,146.02 327.00,142.91 340.00,142.41 353.00,141.39 366.00,139.94 379.00,138.15 392.00,136.08 405.00,133.84 418.00,131.47 431.00,128.98 444.00,126.48 457.00,123.95 470.00,121.44 483.00,118.92 496.00,116.50 509.00,114.25 522.00,112.11 535.00,110.06 548.00,108.01 561.00,106.11 574.00,104.28 587.00,102.61 600.00,100.92 613.00,99.37 626.00,97.97 639.00,96.71 652.00,95.59 665.00,94.64 678.00,93.90 691.00,93.33 704.00,92.65 717.00,92.00 730.00,91.51 743.00,91.20 756.00,90.86 769.00,90.60 782.00,90.34 795.00,90.15 808.00,90.03 821.00,90.00 834.00,90.02 847.00,90.13 860.00,90.28"/>
<polyline fill="none" stroke="#1d4ed8" stroke-width="2.4" points="80.00,260.00 93.00,246.94 106.00,238.39 119.00,227.12 132.00,219.25 145.00,209.80 158.00,203.51 171.00,195.90 184.00,190.73 197.00,184.42 210.00,179.97 223.00,174.61 236.00,170.68 249.00,166.12 262.00,162.74 275.00,158.92 288.00,155.98 301.00,152.68 314.00,150.04 327.00,147.08 340.00,149.51 353.00,150.87 366.00,151.30 379.00,150.96 392.00,149.96 405.00,148.46 418.00,146.55 431.00,144.28 444.00,141.80 457.00,139.12 470.00,136.31 483.00,133.40 496.00,130.49 509.00,127.67 522.00,124.92 535.00,122.21 548.00,119.49 561.00,116.90 574.00,114.38 587.00,112.01 600.00,109.64 613.00,107.42 626.00,105.36 639.00,103.47 652.00,101.74 665.00,100.20 678.00,98.90 691.00,97.80 704.00,96.60 717.00,95.47 730.00,94.53 743.00,93.79 756.00,93.04 769.00,92.40 782.00,91.78 795.00,91.25 808.00,90.82 821.00,90.50 834.00,90.24 847.00,90.08 860.00,90.00"/>
<polyline fill="none" stroke="#7c3aed" stroke-width="2.4" points="80.00,260.00 93.00,242.04 106.00,230.43 119.00,215.26 132.00,204.64 145.00,192.03 158.00,183.48 171.00,173.81 184.00,167.41 197.00,160.26 210.00,155.55 223.00,150.27 236.00,146.78 249.00,142.86 262.00,140.32 275.00,137.47 288.00,135.65 301.00,133.57 314.00,132.25 327.00,130.65 340.00,131.69 353.00,134.51 366.00,137.32 379.00,139.90 392.00,142.17 405.00,144.17 418.00,145.88 431.00,147.19 444.00,148.16 457.00,148.81 470.00,149.05 483.00,148.89 496.00,148.40 509.00,147.72 522.00,146.88 535.00,145.76 548.00,144.25 561.00,142.51 574.00,140.53 587.00,138.31 600.00,135.83 613.00,133.38 626.00,130.81 639.00,128.16 652.00,125.44 665.00,122.72 678.00,120.15 691.00,117.74 704.00,115.19 717.00,112.71 730.00,110.24 743.00,107.97 756.00,105.72 769.00,103.56 782.00,101.30 795.00,99.23 808.00,97.13 821.00,95.04 834.00,93.00 847.00,91.39 860.00,90.00"/>
<polyline fill="none" stroke="#065f46" stroke-width="2.4" points="80.00,260.00 93.00,242.47 106.00,230.99 119.00,215.89 132.00,205.36 145.00,192.88 158.00,184.76 171.00,175.47 184.00,169.58 197.00,162.82 210.00,158.55 223.00,153.59 236.00,150.42 249.00,146.76 262.00,144.51 275.00,141.92 288.00,140.34 301.00,138.46 314.00,137.31 327.00,135.83 340.00,139.60 353.00,143.94 366.00,147.79 379.00,151.07 392.00,153.78 405.00,156.03 418.00,157.82 431.00,159.09 444.00,159.92 457.00,160.35 470.00,160.31 483.00,159.82 496.00,158.98 509.00,157.90 522.00,156.62 535.00,155.05 548.00,153.08 561.00,150.86 574.00,148.41 587.00,145.71 600.00,142.76 613.00,139.84 626.00,136.81 639.00,133.71 652.00,130.54 665.00,127.39 678.00,124.40 691.00,121.59 704.00,118.65 717.00,115.79 730.00,112.97 743.00,110.36 756.00,107.78 769.00,105.32 782.00,102.76 795.00,100.41 808.00,98.05 821.00,95.71 834.00,93.43 847.00,91.60 860.00,90.00"/>
  <text x="650" y="112" font-size="13" font-family="Georgia" fill="#9a3412">baseline_parent_law</text> <text x="650" y="130" font-size="13" font-family="Georgia" fill="#1d4ed8">loop_only</text> <text x="650" y="148" font-size="13" font-family="Georgia" fill="#7c3aed">memory_only</text> <text x="650" y="166" font-size="13" font-family="Georgia" fill="#065f46">loop_and_memory_stabilized</text>
  <text x="80" y="328" font-size="18" font-family="Georgia">Psi, damage signal, and current drive</text>
<line x1="80" y1="340" x2="80" y2="510" stroke="#1f2937" stroke-width="1.5"/>
<line x1="80" y1="510" x2="860" y2="510" stroke="#1f2937" stroke-width="1.5"/>
<line x1="340.00" y1="340" x2="340.00" y2="510" stroke="#b45309" stroke-width="1.2" stroke-dasharray="6 6"/>
<text x="348.00" y="356" font-size="12" fill="#92400e" font-family="Georgia">damage center</text>
  <polyline fill="none" stroke="#1d4ed8" stroke-width="2.2" points="80.00,365.69 93.00,358.92 106.00,353.87 119.00,350.15 132.00,351.68 145.00,352.25 158.00,364.63 171.00,362.56 184.00,370.87 197.00,366.98 210.00,371.65 223.00,368.10 236.00,370.45 249.00,369.12 262.00,371.78 275.00,371.40 288.00,372.21 301.00,371.60 314.00,370.92 327.00,369.54 340.00,510.00 353.00,488.22 366.00,469.20 379.00,452.58 392.00,438.05 405.00,425.41 418.00,414.36 431.00,404.68 444.00,396.29 457.00,388.94 470.00,382.53 483.00,376.91 496.00,372.06 509.00,367.89 522.00,364.23 535.00,361.01 548.00,358.16 561.00,355.76 574.00,353.62 587.00,351.82 600.00,350.07 613.00,348.70 626.00,347.53 639.00,346.51 652.00,345.64 665.00,344.93 678.00,344.34 691.00,343.93 704.00,343.18 717.00,342.60 730.00,342.37 743.00,342.20 756.00,341.73 769.00,341.47 782.00,341.03 795.00,340.79 808.00,340.54 821.00,340.51 834.00,340.04 847.00,340.04 860.00,340.00"/>
<polyline fill="none" stroke="#b91c1c" stroke-width="2.0" points="80.00,510.00 93.00,510.00 106.00,510.00 119.00,510.00 132.00,505.87 145.00,503.26 158.00,489.60 171.00,490.40 184.00,481.33 197.00,484.34 210.00,479.17 223.00,482.09 236.00,479.38 249.00,480.29 262.00,477.38 275.00,477.45 288.00,476.45 301.00,476.82 314.00,477.34 327.00,478.51 340.00,340.00 353.00,361.47 366.00,380.23 379.00,396.61 392.00,410.93 405.00,423.44 418.00,434.37 431.00,443.92 444.00,452.27 457.00,459.56 470.00,465.93 483.00,471.49 496.00,476.36 509.00,480.61 522.00,484.32 535.00,487.56 548.00,490.39 561.00,492.87 574.00,495.03 587.00,496.92 600.00,498.58 613.00,500.02 626.00,501.28 639.00,502.38 652.00,503.34 665.00,504.18 678.00,504.92 691.00,505.56 704.00,506.12 717.00,506.61 730.00,507.04 743.00,507.41 756.00,507.74 769.00,508.02 782.00,508.27 795.00,508.49 808.00,508.68 821.00,508.85 834.00,508.99 847.00,509.12 860.00,509.23"/>
<polyline fill="none" stroke="#7c3aed" stroke-width="2.0" points="80.00,510.00 93.00,340.00 106.00,366.82 119.00,340.65 132.00,365.03 145.00,343.72 158.00,366.46 171.00,348.54 184.00,365.80 197.00,351.27 210.00,363.66 223.00,352.50 236.00,361.14 249.00,353.15 262.00,359.48 275.00,353.77 288.00,357.74 301.00,353.58 314.00,355.75 327.00,352.66 340.00,391.29 353.00,385.84 366.00,381.07 379.00,376.89 392.00,373.24 405.00,370.07 418.00,367.31 431.00,364.94 444.00,362.90 457.00,361.17 470.00,359.72 483.00,358.51 496.00,357.53 509.00,356.76 522.00,356.18 535.00,355.77 548.00,355.52 561.00,355.41 574.00,355.44 587.00,355.59 600.00,355.85 613.00,356.22 626.00,356.69 639.00,357.24 652.00,357.88 665.00,358.59 678.00,359.37 691.00,360.22 704.00,361.12 717.00,362.07 730.00,363.15 743.00,364.26 756.00,365.40 769.00,366.56 782.00,367.74 795.00,368.92 808.00,370.11 821.00,371.31 834.00,372.49 847.00,373.66 860.00,374.82"/>
  <text x="650" y="362" font-size="13" font-family="Georgia" fill="#1d4ed8">psi</text>
  <text x="650" y="380" font-size="13" font-family="Georgia" fill="#b91c1c">damage signal</text>
  <text x="650" y="398" font-size="13" font-family="Georgia" fill="#7c3aed">current drive</text>
</svg>
