<svg xmlns="http://www.w3.org/2000/svg" width="940" height="900" viewBox="0 0 940 900" role="img" aria-labelledby="title desc">
  <title id="title">Multi-plaquette lattice benchmark response</title>
  <desc id="desc">Stylized four-plaquette lattice comparison between the parent and stabilized laws under the vendored benchmark trace.</desc>
  <rect width="100%" height="100%" fill="#f8fafc"/>
  <text x="80" y="42" font-size="28" font-family="Georgia" fill="#0f172a">Multi-Plaquette Lattice Response</text>
  <text x="80" y="66" font-size="14" font-family="Georgia" fill="#334155">Four coupled plaquettes with corridor damage, local curve memory, and loop-coherence feedback.</text>
  <text x="80" y="78" font-size="18" font-family="Georgia">Mean conductance magnitude</text>
<line x1="80" y1="90" x2="80" y2="270" stroke="#1f2937" stroke-width="1.5"/>
<line x1="80" y1="270" x2="860" y2="270" stroke="#1f2937" stroke-width="1.5"/>
<line x1="340.00" y1="90" x2="340.00" y2="270" stroke="#b45309" stroke-width="1.2" stroke-dasharray="6 6"/>
<text x="348.00" y="106" font-size="12" fill="#92400e" font-family="Georgia">damage center</text>
  <polyline fill="none" stroke="#9a3412" stroke-width="2.4" points="80.00,270.00 93.00,255.61 106.00,246.31 119.00,234.12 132.00,225.65 145.00,215.59 158.00,208.75 171.00,200.80 184.00,195.18 197.00,188.64 210.00,183.87 223.00,178.31 236.00,174.17 249.00,169.43 262.00,165.93 275.00,161.95 288.00,158.94 301.00,155.48 314.00,152.84 327.00,149.69 340.00,152.47 353.00,154.05 366.00,154.62 379.00,154.34 392.00,153.33 405.00,151.78 418.00,149.77 431.00,147.37 444.00,144.74 457.00,141.89 470.00,138.90 483.00,135.82 496.00,132.72 509.00,129.71 522.00,126.74 535.00,123.81 548.00,120.91 561.00,118.14 574.00,115.44 587.00,112.92 600.00,110.44 613.00,108.11 626.00,105.95 639.00,103.95 652.00,102.12 665.00,100.51 678.00,99.14 691.00,97.98 704.00,96.74 717.00,95.55 730.00,94.59 743.00,93.84 756.00,93.07 769.00,92.41 782.00,91.78 795.00,91.24 808.00,90.80 821.00,90.47 834.00,90.21 847.00,90.07 860.00,90.00"/>
  <polyline fill="none" stroke="#065f46" stroke-width="2.4" points="80.00,270.00 93.00,255.44 106.00,251.90 119.00,245.70 132.00,241.69 145.00,235.65 158.00,231.61 171.00,225.97 184.00,221.91 197.00,216.49 210.00,212.37 223.00,207.10 236.00,202.95 249.00,197.91 262.00,193.91 275.00,189.22 288.00,185.41 301.00,181.00 314.00,177.38 327.00,173.17 340.00,174.42 353.00,175.33 366.00,175.56 379.00,175.16 392.00,174.14 405.00,172.64 418.00,170.68 431.00,168.28 444.00,165.57 457.00,162.54 470.00,159.26 483.00,155.79 496.00,152.19 509.00,148.58 522.00,144.93 535.00,141.26 548.00,137.57 561.00,133.95 574.00,130.39 587.00,126.97 600.00,123.59 613.00,120.37 626.00,117.31 639.00,114.43 652.00,111.73 665.00,109.27 678.00,107.08 691.00,105.13 704.00,103.14 717.00,101.24 730.00,99.58 743.00,98.18 756.00,96.80 769.00,95.56 782.00,94.39 795.00,93.34 808.00,92.42 821.00,91.65 834.00,90.97 847.00,90.44 860.00,90.00"/>
  <text x="650" y="108" font-size="13" font-family="Georgia" fill="#9a3412">baseline parent law</text>
  <text x="650" y="126" font-size="13" font-family="Georgia" fill="#065f46">loop + memory stabilized law</text>
  <text x="80" y="338" font-size="18" font-family="Georgia">Global Psi and stressed-edge memory</text>
<line x1="80" y1="350" x2="80" y2="530" stroke="#1f2937" stroke-width="1.5"/>
<line x1="80" y1="530" x2="860" y2="530" stroke="#1f2937" stroke-width="1.5"/>
<line x1="340.00" y1="350" x2="340.00" y2="530" stroke="#b45309" stroke-width="1.2" stroke-dasharray="6 6"/>
<text x="348.00" y="366" font-size="12" fill="#92400e" font-family="Georgia">damage center</text>
  <polyline fill="none" stroke="#1d4ed8" stroke-width="2.4" points="80.00,530.00 93.00,469.88 106.00,433.38 119.00,411.36 132.00,396.51 145.00,385.74 158.00,378.07 171.00,371.70 184.00,367.38 197.00,363.69 210.00,360.96 223.00,358.69 236.00,356.84 249.00,355.33 262.00,354.03 275.00,352.99 288.00,352.05 301.00,351.31 314.00,350.62 327.00,350.07 340.00,350.16 353.00,350.01 366.00,350.00 379.00,350.12 392.00,350.36 405.00,350.75 418.00,351.19 431.00,351.65 444.00,352.11 457.00,352.58 470.00,352.96 483.00,353.33 496.00,353.66 509.00,354.05 522.00,354.50 535.00,354.90 548.00,355.29 561.00,355.68 574.00,356.12 587.00,356.55 600.00,357.04 613.00,357.54 626.00,358.05 639.00,358.58 652.00,359.13 665.00,359.70 678.00,360.28 691.00,360.88 704.00,361.48 717.00,362.09 730.00,362.71 743.00,363.33 756.00,363.97 769.00,364.61 782.00,365.26 795.00,365.92 808.00,366.59 821.00,367.27 834.00,367.96 847.00,368.62 860.00,369.29"/>
  <polyline fill="none" stroke="#7c3aed" stroke-width="2.4" points="80.00,528.43 93.00,350.00 106.00,365.50 119.00,388.54 132.00,406.83 145.00,424.30 158.00,438.99 171.00,451.88 184.00,462.72 197.00,472.15 210.00,480.07 223.00,486.96 236.00,492.76 249.00,497.77 262.00,501.96 275.00,505.57 288.00,508.60 301.00,511.22 314.00,513.46 327.00,515.42 340.00,498.11 353.00,493.57 366.00,492.07 379.00,492.43 392.00,493.50 405.00,495.33 418.00,497.98 431.00,500.79 444.00,503.44 457.00,506.38 470.00,509.06 483.00,511.53 496.00,513.71 509.00,515.58 522.00,517.40 535.00,519.08 548.00,520.55 561.00,521.82 574.00,522.98 587.00,523.95 600.00,524.76 613.00,525.51 626.00,526.17 639.00,526.74 652.00,527.23 665.00,527.64 678.00,527.99 691.00,528.29 704.00,528.56 717.00,528.80 730.00,529.00 743.00,529.17 756.00,529.32 769.00,529.46 782.00,529.57 795.00,529.68 808.00,529.77 821.00,529.84 834.00,529.90 847.00,529.95 860.00,530.00"/>
  <text x="650" y="368" font-size="13" font-family="Georgia" fill="#1d4ed8">global psi</text>
  <text x="650" y="386" font-size="13" font-family="Georgia" fill="#7c3aed">stressed-edge mean memory</text>
  <text x="80" y="598" font-size="18" font-family="Georgia">Memory concentration</text>
<line x1="80" y1="610" x2="80" y2="790" stroke="#1f2937" stroke-width="1.5"/>
<line x1="80" y1="790" x2="860" y2="790" stroke="#1f2937" stroke-width="1.5"/>
<line x1="340.00" y1="610" x2="340.00" y2="790" stroke="#b45309" stroke-width="1.2" stroke-dasharray="6 6"/>
<text x="348.00" y="626" font-size="12" fill="#92400e" font-family="Georgia">damage center</text>
  <polyline fill="none" stroke="#b45309" stroke-width="2.4" points="80.00,610.00 93.00,789.94 106.00,789.95 119.00,789.95 132.00,789.95 145.00,789.95 158.00,789.95 171.00,789.95 184.00,789.95 197.00,789.95 210.00,789.95 223.00,789.95 236.00,789.95 249.00,789.95 262.00,789.95 275.00,789.95 288.00,789.95 301.00,789.95 314.00,789.95 327.00,789.96 340.00,789.99 353.00,790.00 366.00,790.00 379.00,790.00 392.00,790.00 405.00,790.00 418.00,790.00 431.00,790.00 444.00,790.00 457.00,790.00 470.00,790.00 483.00,790.00 496.00,790.00 509.00,790.00 522.00,790.00 535.00,790.00 548.00,790.00 561.00,790.00 574.00,790.00 587.00,790.00 600.00,789.99 613.00,789.99 626.00,789.99 639.00,789.98 652.00,789.98 665.00,789.96 678.00,789.95 691.00,789.92 704.00,789.89 717.00,789.85 730.00,789.79 743.00,789.71 756.00,789.60 769.00,789.45 782.00,789.25 795.00,788.98 808.00,788.60 821.00,788.10 834.00,787.50 847.00,786.71 860.00,785.61"/>
  <text x="650" y="628" font-size="13" font-family="Georgia" fill="#b45309">Herfindahl memory concentration</text>
</svg>
