<svg xmlns="http://www.w3.org/2000/svg" width="900" height="620" viewBox="0 0 900 620" role="img" aria-labelledby="title desc">
  <title id="title">Loop-coherence and curve-memory stabilized BZ conductance reference simulation</title>
  <desc id="desc">Comparison between the parent BZ law and the loop-coherence plus curve-memory stabilized law on a single-plaquette reference trajectory.</desc>
  <rect width="100%" height="100%" fill="#f8fafc"/>
  <text x="80" y="42" font-size="28" font-family="Georgia" fill="#0f172a">Reference Simulation</text>
  <text x="80" y="66" font-size="14" font-family="Georgia" fill="#334155">Single-plaquette trajectory with a localized slip burst and entropy-gated damping.</text>
  <text x="80" y="78" font-size="18" font-family="Georgia">Mean conductance magnitude</text>
<line x1="80" y1="90" x2="80" y2="270" stroke="#1f2937" stroke-width="1.5"/>
<line x1="80" y1="270" x2="840" y2="270" stroke="#1f2937" stroke-width="1.5"/>
<line x1="384.00" y1="90" x2="384.00" y2="270" stroke="#b45309" stroke-width="1.2" stroke-dasharray="6 6"/>
<text x="392.00" y="106" font-size="12" fill="#92400e" font-family="Georgia">damage center</text>
  <polyline fill="none" stroke="#9a3412" stroke-width="2.5" points="80.00,270.00 81.90,263.30 83.80,256.85 85.70,250.63 87.60,244.64 89.50,238.86 91.40,233.30 93.30,227.95 95.20,222.78 97.10,217.82 99.00,213.03 100.90,208.42 102.80,203.99 104.70,199.72 106.60,195.61 108.50,191.65 110.40,187.85 112.30,184.19 114.20,180.67 116.10,177.28 118.00,174.02 119.90,170.89 121.80,167.88 123.70,164.99 125.60,162.21 127.50,159.54 129.40,156.98 131.30,154.51 133.20,152.15 135.10,149.88 137.00,147.70 138.90,145.61 140.80,143.61 142.70,141.68 144.60,139.84 146.50,138.07 148.40,136.38 150.30,134.76 152.20,133.21 154.10,131.72 156.00,130.30 157.90,128.94 159.80,127.63 161.70,126.39 163.60,125.20 165.50,124.06 167.40,122.98 169.30,121.94 171.20,120.96 173.10,120.01 175.00,119.11 176.90,118.26 178.80,117.44 180.70,116.67 182.60,115.93 184.50,115.23 186.40,114.56 188.30,113.93 190.20,113.33 192.10,112.76 194.00,112.22 195.90,111.71 197.80,111.22 199.70,110.76 201.60,110.33 203.50,109.92 205.40,109.54 207.30,109.18 209.20,108.83 211.10,108.51 213.00,108.21 214.90,107.93 216.80,107.66 218.70,107.41 220.60,107.18 222.50,106.96 224.40,106.76 226.30,106.57 228.20,106.39 230.10,106.23 232.00,106.08 233.90,105.94 235.80,105.81 237.70,105.69 239.60,105.58 241.50,105.48 243.40,105.38 245.30,105.30 247.20,105.22 249.10,105.15 251.00,105.09 252.90,105.03 254.80,104.98 256.70,104.93 258.60,104.89 260.50,104.85 262.40,104.82 264.30,104.80 266.20,104.77 268.10,104.75 270.00,104.74 271.90,104.73 273.80,104.72 275.70,104.72 277.60,104.72 279.50,104.73 281.40,104.74 283.30,104.75 285.20,104.77 287.10,104.80 289.00,104.84 290.90,104.88 292.80,104.94 294.70,105.00 296.60,105.07 298.50,105.16 300.40,105.26 302.30,105.38 304.20,105.52 306.10,105.67 308.00,105.85 309.90,106.06 311.80,106.29 313.70,106.55 315.60,106.85 317.50,107.19 319.40,107.56 321.30,107.98 323.20,108.44 325.10,108.96 327.00,109.53 328.90,110.16 330.80,110.85 332.70,111.60 334.60,112.42 336.50,113.31 338.40,114.26 340.30,115.29 342.20,116.39 344.10,117.56 346.00,118.80 347.90,120.11 349.80,121.48 351.70,122.91 353.60,124.40 355.50,125.94 357.40,127.53 359.30,129.15 361.20,130.80 363.10,132.47 365.00,134.14 366.90,135.82 368.80,137.49 370.70,139.14 372.60,140.75 374.50,142.33 376.40,143.85 378.30,145.32 380.20,146.71 382.10,148.01 384.00,149.23 385.90,150.36 387.80,151.38 389.70,152.29 391.60,153.08 393.50,153.76 395.40,154.32 397.30,154.75 399.20,155.07 401.10,155.27 403.00,155.35 404.90,155.32 406.80,155.18 408.70,154.95 410.60,154.61 412.50,154.19 414.40,153.69 416.30,153.11 418.20,152.47 420.10,151.76 422.00,151.00 423.90,150.19 425.80,149.33 427.70,148.43 429.60,147.50 431.50,146.53 433.40,145.53 435.30,144.51 437.20,143.46 439.10,142.39 441.00,141.29 442.90,140.19 444.80,139.10 446.70,138.04 448.60,136.99 450.50,135.97 452.40,134.95 454.30,133.95 456.20,132.97 458.10,131.99 460.00,131.02 461.90,130.06 463.80,129.11 465.70,128.17 467.60,127.24 469.50,126.31 471.40,125.39 473.30,124.48 475.20,123.57 477.10,122.68 479.00,121.80 480.90,120.92 482.80,120.06 484.70,119.21 486.60,118.37 488.50,117.54 490.40,116.73 492.30,115.92 494.20,115.14 496.10,114.37 498.00,113.61 499.90,112.87 501.80,112.14 503.70,111.43 505.60,110.73 507.50,110.06 509.40,109.39 511.30,108.74 513.20,108.11 515.10,107.49 517.00,106.89 518.90,106.31 520.80,105.74 522.70,105.18 524.60,104.64 526.50,104.12 528.40,103.60 530.30,103.11 532.20,102.62 534.10,102.15 536.00,101.70 537.90,101.25 539.80,100.82 541.70,100.40 543.60,100.00 545.50,99.60 547.40,99.22 549.30,98.85 551.20,98.49 553.10,98.14 555.00,97.80 556.90,97.47 558.80,97.15 560.70,96.85 562.60,96.55 564.50,96.26 566.40,95.98 568.30,95.71 570.20,95.44 572.10,95.19 574.00,94.94 575.90,94.70 577.80,94.47 579.70,94.25 581.60,94.04 583.50,93.83 585.40,93.63 587.30,93.43 589.20,93.25 591.10,93.07 593.00,92.89 594.90,92.72 596.80,92.56 598.70,92.41 600.60,92.26 602.50,92.11 604.40,91.97 606.30,91.84 608.20,91.71 610.10,91.59 612.00,91.47 613.90,91.36 615.80,91.25 617.70,91.15 619.60,91.05 621.50,90.95 623.40,90.86 625.30,90.78 627.20,90.69 629.10,90.62 631.00,90.54 632.90,90.47 634.80,90.41 636.70,90.34 638.60,90.28 640.50,90.23 642.40,90.18 644.30,90.13 646.20,90.08 648.10,90.04 650.00,90.01 651.90,90.00 653.80,90.00 655.70,90.03 657.60,90.06 659.50,90.11 661.40,90.17 663.30,90.25 665.20,90.34 667.10,90.44 669.00,90.56 670.90,90.68 672.80,90.82 674.70,90.97 676.60,91.12 678.50,91.29 680.40,91.46 682.30,91.64 684.20,91.83 686.10,92.03 688.00,92.24 689.90,92.45 691.80,92.67 693.70,92.89 695.60,93.12 697.50,93.35 699.40,93.59 701.30,93.83 703.20,94.08 705.10,94.33 707.00,94.58 708.90,94.84 710.80,95.09 712.70,95.35 714.60,95.61 716.50,95.88 718.40,96.14 720.30,96.41 722.20,96.67 724.10,96.94 726.00,97.20 727.90,97.47 729.80,97.73 731.70,97.99 733.60,98.25 735.50,98.51 737.40,98.77 739.30,99.03 741.20,99.28 743.10,99.53 745.00,99.78 746.90,100.03 748.80,100.27 750.70,100.51 752.60,100.74 754.50,100.97 756.40,101.20 758.30,101.42 760.20,101.64 762.10,101.85 764.00,102.06 765.90,102.26 767.80,102.46 769.70,102.66 771.60,102.84 773.50,103.02 775.40,103.20 777.30,103.37 779.20,103.53 781.10,103.69 783.00,103.84 784.90,103.99 786.80,104.12 788.70,104.26 790.60,104.38 792.50,104.50 794.40,104.61 796.30,104.71 798.20,104.81 800.10,104.90 802.00,104.98 803.90,105.05 805.80,105.12 807.70,105.18 809.60,105.23 811.50,105.28 813.40,105.31 815.30,105.34 817.20,105.37 819.10,105.38 821.00,105.39 822.90,105.38 824.80,105.38 826.70,105.36 828.60,105.33 830.50,105.30 832.40,105.26 834.30,105.21 836.20,105.16 838.10,105.09 840.00,105.02"/>
<polyline fill="none" stroke="#065f46" stroke-width="2.5" points="80.00,270.00 81.90,263.01 83.80,256.27 85.70,249.79 87.60,243.55 89.50,237.55 91.40,231.77 93.30,226.21 95.20,220.87 97.10,215.72 99.00,210.77 100.90,206.02 102.80,201.44 104.70,197.04 106.60,192.81 108.50,188.75 110.40,184.85 112.30,181.10 114.20,177.49 116.10,174.03 118.00,170.71 119.90,167.52 121.80,164.46 123.70,161.53 125.60,158.71 127.50,156.01 129.40,153.42 131.30,150.94 133.20,148.56 135.10,146.28 137.00,144.10 138.90,142.01 140.80,140.01 142.70,138.10 144.60,136.27 146.50,134.52 148.40,132.85 150.30,131.26 152.20,129.73 154.10,128.28 156.00,126.89 157.90,125.57 159.80,124.31 161.70,123.10 163.60,121.96 165.50,120.87 167.40,119.84 169.30,118.85 171.20,117.92 173.10,117.03 175.00,116.19 176.90,115.39 178.80,114.63 180.70,113.92 182.60,113.24 184.50,112.60 186.40,111.99 188.30,111.42 190.20,110.89 192.10,110.38 194.00,109.91 195.90,109.46 197.80,109.04 199.70,108.65 201.60,108.28 203.50,107.93 205.40,107.61 207.30,107.31 209.20,107.03 211.10,106.77 213.00,106.53 214.90,106.31 216.80,106.11 218.70,105.92 220.60,105.74 222.50,105.58 224.40,105.44 226.30,105.30 228.20,105.18 230.10,105.07 232.00,104.97 233.90,104.88 235.80,104.80 237.70,104.73 239.60,104.67 241.50,104.61 243.40,104.56 245.30,104.52 247.20,104.49 249.10,104.46 251.00,104.43 252.90,104.41 254.80,104.39 256.70,104.38 258.60,104.37 260.50,104.36 262.40,104.36 264.30,104.36 266.20,104.36 268.10,104.36 270.00,104.37 271.90,104.38 273.80,104.39 275.70,104.40 277.60,104.42 279.50,104.44 281.40,104.46 283.30,104.49 285.20,104.52 287.10,104.57 289.00,104.62 290.90,104.68 292.80,104.75 294.70,104.84 296.60,104.95 298.50,105.09 300.40,105.25 302.30,105.45 304.20,105.70 306.10,105.99 308.00,106.34 309.90,106.76 311.80,107.26 313.70,107.85 315.60,108.53 317.50,109.32 319.40,110.23 321.30,111.25 323.20,112.41 325.10,113.70 327.00,115.12 328.90,116.68 330.80,118.37 332.70,120.19 334.60,122.13 336.50,124.19 338.40,126.36 340.30,128.63 342.20,130.99 344.10,133.42 346.00,135.92 347.90,138.48 349.80,141.08 351.70,143.71 353.60,146.36 355.50,149.03 357.40,151.68 359.30,154.33 361.20,156.95 363.10,159.53 365.00,162.07 366.90,164.56 368.80,166.98 370.70,169.34 372.60,171.61 374.50,173.80 376.40,175.90 378.30,177.89 380.20,179.78 382.10,181.55 384.00,183.21 385.90,184.75 387.80,186.17 389.70,187.46 391.60,188.62 393.50,189.67 395.40,190.60 397.30,191.42 399.20,192.14 401.10,192.77 403.00,193.33 404.90,193.81 406.80,194.25 408.70,194.64 410.60,194.99 412.50,195.31 414.40,195.59 416.30,195.86 418.20,196.09 420.10,196.31 422.00,196.49 423.90,196.65 425.80,196.78 427.70,196.87 429.60,196.93 431.50,196.96 433.40,196.94 435.30,196.88 437.20,196.77 439.10,196.61 441.00,196.41 442.90,196.15 444.80,195.85 446.70,195.53 448.60,195.16 450.50,194.74 452.40,194.28 454.30,193.77 456.20,193.20 458.10,192.58 460.00,191.90 461.90,191.16 463.80,190.36 465.70,189.50 467.60,188.58 469.50,187.60 471.40,186.56 473.30,185.46 475.20,184.30 477.10,183.09 479.00,181.82 480.90,180.51 482.80,179.14 484.70,177.73 486.60,176.28 488.50,174.79 490.40,173.26 492.30,171.70 494.20,170.11 496.10,168.50 498.00,166.86 499.90,165.21 501.80,163.54 503.70,161.87 505.60,160.18 507.50,158.49 509.40,156.79 511.30,155.10 513.20,153.41 515.10,151.72 517.00,150.04 518.90,148.38 520.80,146.72 522.70,145.08 524.60,143.45 526.50,141.84 528.40,140.25 530.30,138.68 532.20,137.14 534.10,135.61 536.00,134.11 537.90,132.63 539.80,131.18 541.70,129.76 543.60,128.36 545.50,126.99 547.40,125.65 549.30,124.34 551.20,123.05 553.10,121.79 555.00,120.57 556.90,119.37 558.80,118.20 560.70,117.06 562.60,115.95 564.50,114.86 566.40,113.81 568.30,112.79 570.20,111.79 572.10,110.82 574.00,109.88 575.90,108.97 577.80,108.08 579.70,107.22 581.60,106.39 583.50,105.59 585.40,104.81 587.30,104.05 589.20,103.32 591.10,102.62 593.00,101.93 594.90,101.28 596.80,100.64 598.70,100.03 600.60,99.44 602.50,98.87 604.40,98.32 606.30,97.80 608.20,97.29 610.10,96.81 612.00,96.34 613.90,95.89 615.80,95.46 617.70,95.05 619.60,94.66 621.50,94.28 623.40,93.92 625.30,93.58 627.20,93.26 629.10,92.94 631.00,92.65 632.90,92.37 634.80,92.10 636.70,91.85 638.60,91.61 640.50,91.38 642.40,91.17 644.30,90.96 646.20,90.77 648.10,90.60 650.00,90.44 651.90,90.31 653.80,90.20 655.70,90.12 657.60,90.06 659.50,90.02 661.40,90.00 663.30,90.00 665.20,90.02 667.10,90.06 669.00,90.11 670.90,90.19 672.80,90.27 674.70,90.38 676.60,90.49 678.50,90.63 680.40,90.77 682.30,90.93 684.20,91.10 686.10,91.28 688.00,91.47 689.90,91.67 691.80,91.88 693.70,92.10 695.60,92.33 697.50,92.56 699.40,92.81 701.30,93.06 703.20,93.31 705.10,93.57 707.00,93.84 708.90,94.11 710.80,94.38 712.70,94.66 714.60,94.94 716.50,95.22 718.40,95.50 720.30,95.79 722.20,96.08 724.10,96.37 726.00,96.66 727.90,96.94 729.80,97.23 731.70,97.52 733.60,97.81 735.50,98.09 737.40,98.37 739.30,98.65 741.20,98.93 743.10,99.21 745.00,99.48 746.90,99.75 748.80,100.01 750.70,100.27 752.60,100.53 754.50,100.78 756.40,101.03 758.30,101.27 760.20,101.50 762.10,101.73 764.00,101.96 765.90,102.18 767.80,102.39 769.70,102.60 771.60,102.80 773.50,102.99 775.40,103.17 777.30,103.35 779.20,103.52 781.10,103.69 783.00,103.84 784.90,103.99 786.80,104.13 788.70,104.27 790.60,104.39 792.50,104.51 794.40,104.62 796.30,104.72 798.20,104.81 800.10,104.89 802.00,104.96 803.90,105.03 805.80,105.09 807.70,105.13 809.60,105.17 811.50,105.20 813.40,105.23 815.30,105.24 817.20,105.24 819.10,105.24 821.00,105.22 822.90,105.20 824.80,105.17 826.70,105.13 828.60,105.08 830.50,105.02 832.40,104.96 834.30,104.88 836.20,104.79 838.10,104.70 840.00,104.60"/>
  <text x="620" y="108" font-size="13" font-family="Georgia" fill="#9a3412">baseline parent law</text>
  <text x="620" y="128" font-size="13" font-family="Georgia" fill="#065f46">loop + memory stabilized law</text>
  <text x="80" y="348" font-size="18" font-family="Georgia">Loop coherence and mean memory</text>
<line x1="80" y1="360" x2="80" y2="540" stroke="#1f2937" stroke-width="1.5"/>
<line x1="80" y1="540" x2="840" y2="540" stroke="#1f2937" stroke-width="1.5"/>
<line x1="384.00" y1="360" x2="384.00" y2="540" stroke="#b45309" stroke-width="1.2" stroke-dasharray="6 6"/>
<text x="392.00" y="376" font-size="12" fill="#92400e" font-family="Georgia">damage center</text>
  <polyline fill="none" stroke="#1d4ed8" stroke-width="2.5" points="80.00,361.63 81.90,361.76 83.80,361.89 85.70,362.04 87.60,362.19 89.50,362.35 91.40,362.52 93.30,362.69 95.20,362.87 97.10,363.07 99.00,363.27 100.90,363.47 102.80,363.69 104.70,363.92 106.60,364.15 108.50,364.40 110.40,364.65 112.30,364.91 114.20,365.18 116.10,365.46 118.00,365.75 119.90,366.04 121.80,366.35 123.70,366.66 125.60,366.99 127.50,367.32 129.40,367.66 131.30,368.01 133.20,368.37 135.10,368.73 137.00,369.11 138.90,369.49 140.80,369.88 142.70,370.28 144.60,370.68 146.50,371.09 148.40,371.51 150.30,371.93 152.20,372.36 154.10,372.80 156.00,373.24 157.90,373.68 159.80,374.13 161.70,374.59 163.60,375.05 165.50,375.51 167.40,375.97 169.30,376.44 171.20,376.91 173.10,377.38 175.00,377.85 176.90,378.33 178.80,378.80 180.70,379.28 182.60,379.75 184.50,380.22 186.40,380.69 188.30,381.16 190.20,381.63 192.10,382.09 194.00,382.55 195.90,383.01 197.80,383.46 199.70,383.90 201.60,384.34 203.50,384.78 205.40,385.20 207.30,385.63 209.20,386.04 211.10,386.44 213.00,386.84 214.90,387.23 216.80,387.61 218.70,387.98 220.60,388.33 222.50,388.68 224.40,389.02 226.30,389.35 228.20,389.66 230.10,389.96 232.00,390.25 233.90,390.53 235.80,390.80 237.70,391.05 239.60,391.29 241.50,391.51 243.40,391.73 245.30,391.92 247.20,392.11 249.10,392.29 251.00,392.45 252.90,392.60 254.80,392.73 256.70,392.86 258.60,392.98 260.50,393.09 262.40,393.19 264.30,393.28 266.20,393.37 268.10,393.45 270.00,393.53 271.90,393.61 273.80,393.70 275.70,393.79 277.60,393.89 279.50,394.01 281.40,394.14 283.30,394.29 285.20,394.47 287.10,394.68 289.00,394.92 290.90,395.21 292.80,395.55 294.70,395.95 296.60,396.41 298.50,396.94 300.40,397.56 302.30,398.26 304.20,399.07 306.10,400.00 308.00,401.04 309.90,402.23 311.80,403.56 313.70,405.05 315.60,406.72 317.50,408.58 319.40,410.64 321.30,412.91 323.20,415.41 325.10,418.15 327.00,421.14 328.90,424.39 330.80,427.90 332.70,431.68 334.60,435.73 336.50,440.05 338.40,444.62 340.30,449.45 342.20,454.50 344.10,459.77 346.00,465.21 347.90,470.81 349.80,476.51 351.70,482.28 353.60,488.07 355.50,493.82 357.40,499.48 359.30,505.00 361.20,510.30 363.10,515.34 365.00,520.06 366.90,524.39 368.80,528.28 370.70,531.69 372.60,534.57 374.50,536.87 376.40,538.56 378.30,539.61 380.20,540.00 382.10,539.71 384.00,538.75 385.90,537.09 387.80,534.77 389.70,531.78 391.60,528.15 393.50,523.92 395.40,519.13 397.30,513.81 399.20,508.02 401.10,501.82 403.00,495.28 404.90,488.45 406.80,481.41 408.70,474.23 410.60,466.98 412.50,459.72 414.40,452.52 416.30,445.45 418.20,438.55 420.10,431.89 422.00,425.49 423.90,419.40 425.80,413.64 427.70,408.24 429.60,403.20 431.50,398.54 433.40,394.25 435.30,390.32 437.20,386.75 439.10,383.52 441.00,380.62 442.90,378.03 444.80,375.71 446.70,373.66 448.60,371.86 450.50,370.27 452.40,368.87 454.30,367.66 456.20,366.60 458.10,365.68 460.00,364.88 461.90,364.19 463.80,363.60 465.70,363.09 467.60,362.65 469.50,362.27 471.40,361.95 473.30,361.67 475.20,361.43 477.10,361.22 479.00,361.05 480.90,360.90 482.80,360.76 484.70,360.65 486.60,360.55 488.50,360.47 490.40,360.40 492.30,360.34 494.20,360.28 496.10,360.23 498.00,360.19 499.90,360.16 501.80,360.13 503.70,360.10 505.60,360.08 507.50,360.06 509.40,360.05 511.30,360.03 513.20,360.02 515.10,360.01 517.00,360.01 518.90,360.00 520.80,360.00 522.70,360.00 524.60,360.00 526.50,360.00 528.40,360.01 530.30,360.01 532.20,360.02 534.10,360.03 536.00,360.04 537.90,360.06 539.80,360.07 541.70,360.09 543.60,360.11 545.50,360.13 547.40,360.16 549.30,360.19 551.20,360.22 553.10,360.25 555.00,360.29 556.90,360.33 558.80,360.37 560.70,360.42 562.60,360.47 564.50,360.53 566.40,360.58 568.30,360.65 570.20,360.72 572.10,360.79 574.00,360.87 575.90,360.95 577.80,361.04 579.70,361.14 581.60,361.24 583.50,361.35 585.40,361.46 587.30,361.58 589.20,361.71 591.10,361.84 593.00,361.98 594.90,362.13 596.80,362.29 598.70,362.45 600.60,362.63 602.50,362.81 604.40,362.99 606.30,363.19 608.20,363.40 610.10,363.61 612.00,363.83 613.90,364.06 615.80,364.30 617.70,364.55 619.60,364.81 621.50,365.08 623.40,365.35 625.30,365.64 627.20,365.93 629.10,366.24 631.00,366.55 632.90,366.87 634.80,367.20 636.70,367.53 638.60,367.88 640.50,368.24 642.40,368.60 644.30,368.97 646.20,369.35 648.10,369.73 650.00,370.13 651.90,370.53 653.80,370.94 655.70,371.35 657.60,371.77 659.50,372.20 661.40,372.63 663.30,373.07 665.20,373.52 667.10,373.97 669.00,374.42 670.90,374.88 672.80,375.34 674.70,375.80 676.60,376.27 678.50,376.74 680.40,377.21 682.30,377.68 684.20,378.15 686.10,378.63 688.00,379.10 689.90,379.57 691.80,380.05 693.70,380.52 695.60,380.99 697.50,381.46 699.40,381.92 701.30,382.38 703.20,382.84 705.10,383.29 707.00,383.74 708.90,384.18 710.80,384.62 712.70,385.05 714.60,385.47 716.50,385.89 718.40,386.29 720.30,386.69 722.20,387.09 724.10,387.47 726.00,387.84 727.90,388.20 729.80,388.55 731.70,388.89 733.60,389.22 735.50,389.54 737.40,389.85 739.30,390.14 741.20,390.42 743.10,390.69 745.00,390.94 746.90,391.18 748.80,391.40 750.70,391.61 752.60,391.81 754.50,391.99 756.40,392.16 758.30,392.31 760.20,392.45 762.10,392.57 764.00,392.67 765.90,392.76 767.80,392.83 769.70,392.89 771.60,392.93 773.50,392.95 775.40,392.96 777.30,392.95 779.20,392.92 781.10,392.88 783.00,392.82 784.90,392.75 786.80,392.66 788.70,392.55 790.60,392.43 792.50,392.30 794.40,392.14 796.30,391.97 798.20,391.79 800.10,391.59 802.00,391.38 803.90,391.15 805.80,390.91 807.70,390.66 809.60,390.39 811.50,390.11 813.40,389.81 815.30,389.51 817.20,389.19 819.10,388.86 821.00,388.52 822.90,388.16 824.80,387.80 826.70,387.43 828.60,387.05 830.50,386.65 832.40,386.25 834.30,385.84 836.20,385.43 838.10,385.00 840.00,384.57"/>
<polyline fill="none" stroke="#7c3aed" stroke-width="2.5" points="80.00,540.00 81.90,539.89 83.80,539.79 85.70,539.70 87.60,539.61 89.50,539.52 91.40,539.44 93.30,539.36 95.20,539.28 97.10,539.21 99.00,539.14 100.90,539.08 102.80,539.01 104.70,538.95 106.60,538.89 108.50,538.84 110.40,538.78 112.30,538.73 114.20,538.68 116.10,538.64 118.00,538.59 119.90,538.55 121.80,538.51 123.70,538.47 125.60,538.43 127.50,538.39 129.40,538.36 131.30,538.33 133.20,538.30 135.10,538.27 137.00,538.24 138.90,538.22 140.80,538.19 142.70,538.17 144.60,538.15 146.50,538.13 148.40,538.11 150.30,538.10 152.20,538.09 154.10,538.07 156.00,538.06 157.90,538.05 159.80,538.04 161.70,538.04 163.60,538.03 165.50,538.03 167.40,538.03 169.30,538.03 171.20,538.03 173.10,538.03 175.00,538.03 176.90,538.04 178.80,538.04 180.70,538.05 182.60,538.06 184.50,538.07 186.40,538.08 188.30,538.09 190.20,538.10 192.10,538.12 194.00,538.13 195.90,538.15 197.80,538.16 199.70,538.18 201.60,538.20 203.50,538.22 205.40,538.24 207.30,538.26 209.20,538.28 211.10,538.30 213.00,538.32 214.90,538.35 216.80,538.37 218.70,538.39 220.60,538.42 222.50,538.44 224.40,538.47 226.30,538.49 228.20,538.52 230.10,538.54 232.00,538.57 233.90,538.59 235.80,538.61 237.70,538.64 239.60,538.66 241.50,538.69 243.40,538.71 245.30,538.74 247.20,538.76 249.10,538.78 251.00,538.81 252.90,538.83 254.80,538.85 256.70,538.88 258.60,538.90 260.50,538.93 262.40,538.95 264.30,538.98 266.20,539.01 268.10,539.03 270.00,539.06 271.90,539.09 273.80,539.12 275.70,539.15 277.60,539.18 279.50,539.21 281.40,539.23 283.30,539.25 285.20,539.26 287.10,539.26 289.00,539.24 290.90,539.19 292.80,539.11 294.70,538.99 296.60,538.82 298.50,538.57 300.40,538.24 302.30,537.80 304.20,537.23 306.10,536.50 308.00,535.59 309.90,534.46 311.80,533.09 313.70,531.42 315.60,529.43 317.50,527.09 319.40,524.34 321.30,521.16 323.20,517.53 325.10,513.40 327.00,508.78 328.90,503.65 330.80,498.02 332.70,491.91 334.60,485.34 336.50,478.38 338.40,471.08 340.30,463.53 342.20,455.84 344.10,448.11 346.00,440.48 347.90,433.09 349.80,426.08 351.70,419.61 353.60,413.82 355.50,408.85 357.40,404.83 359.30,401.87 361.20,400.05 363.10,399.42 365.00,400.00 366.90,401.78 368.80,404.71 370.70,408.69 372.60,413.59 374.50,419.26 376.40,425.51 378.30,432.11 380.20,438.85 382.10,445.47 384.00,451.76 385.90,457.46 387.80,462.38 389.70,466.32 391.60,469.14 393.50,470.70 395.40,470.94 397.30,469.81 399.20,467.34 401.10,463.58 403.00,458.61 404.90,452.58 406.80,445.65 408.70,437.99 410.60,429.83 412.50,421.36 414.40,412.81 416.30,404.38 418.20,396.29 420.10,388.70 422.00,381.78 423.90,375.66 425.80,370.47 427.70,366.26 429.60,363.11 431.50,361.02 433.40,360.00 435.30,360.02 437.20,361.04 439.10,362.99 441.00,365.79 442.90,369.36 444.80,373.60 446.70,378.42 448.60,383.71 450.50,389.39 452.40,395.36 454.30,401.53 456.20,407.82 458.10,414.17 460.00,420.51 461.90,426.78 463.80,432.94 465.70,438.95 467.60,444.78 469.50,450.40 471.40,455.79 473.30,460.95 475.20,465.86 477.10,470.53 479.00,474.95 480.90,479.12 482.80,483.06 484.70,486.76 486.60,490.23 488.50,493.49 490.40,496.55 492.30,499.41 494.20,502.08 496.10,504.58 498.00,506.91 499.90,509.09 501.80,511.12 503.70,513.02 505.60,514.79 507.50,516.44 509.40,517.98 511.30,519.41 513.20,520.75 515.10,522.00 517.00,523.16 518.90,524.24 520.80,525.25 522.70,526.19 524.60,527.07 526.50,527.89 528.40,528.65 530.30,529.36 532.20,530.02 534.10,530.63 536.00,531.21 537.90,531.74 539.80,532.24 541.70,532.70 543.60,533.13 545.50,533.53 547.40,533.90 549.30,534.24 551.20,534.56 553.10,534.86 555.00,535.14 556.90,535.39 558.80,535.63 560.70,535.85 562.60,536.05 564.50,536.24 566.40,536.41 568.30,536.57 570.20,536.72 572.10,536.85 574.00,536.98 575.90,537.09 577.80,537.19 579.70,537.29 581.60,537.37 583.50,537.45 585.40,537.52 587.30,537.59 589.20,537.65 591.10,537.70 593.00,537.75 594.90,537.79 596.80,537.82 598.70,537.86 600.60,537.88 602.50,537.91 604.40,537.93 606.30,537.95 608.20,537.96 610.10,537.97 612.00,537.98 613.90,537.99 615.80,538.00 617.70,538.00 619.60,538.00 621.50,538.00 623.40,538.00 625.30,538.00 627.20,538.00 629.10,537.99 631.00,537.99 632.90,537.99 634.80,537.98 636.70,537.97 638.60,537.97 640.50,537.96 642.40,537.96 644.30,537.95 646.20,537.95 648.10,537.94 650.00,537.94 651.90,537.93 653.80,537.93 655.70,537.92 657.60,537.92 659.50,537.92 661.40,537.92 663.30,537.92 665.20,537.92 667.10,537.92 669.00,537.92 670.90,537.92 672.80,537.92 674.70,537.93 676.60,537.93 678.50,537.94 680.40,537.95 682.30,537.96 684.20,537.96 686.10,537.97 688.00,537.99 689.90,538.00 691.80,538.01 693.70,538.02 695.60,538.04 697.50,538.05 699.40,538.07 701.30,538.09 703.20,538.11 705.10,538.12 707.00,538.14 708.90,538.16 710.80,538.19 712.70,538.21 714.60,538.23 716.50,538.25 718.40,538.27 720.30,538.30 722.20,538.32 724.10,538.35 726.00,538.37 727.90,538.40 729.80,538.42 731.70,538.45 733.60,538.47 735.50,538.50 737.40,538.52 739.30,538.55 741.20,538.57 743.10,538.60 745.00,538.62 746.90,538.64 748.80,538.67 750.70,538.69 752.60,538.72 754.50,538.74 756.40,538.76 758.30,538.78 760.20,538.80 762.10,538.82 764.00,538.84 765.90,538.86 767.80,538.88 769.70,538.90 771.60,538.91 773.50,538.93 775.40,538.94 777.30,538.96 779.20,538.97 781.10,538.98 783.00,538.99 784.90,539.00 786.80,539.01 788.70,539.01 790.60,539.02 792.50,539.03 794.40,539.03 796.30,539.03 798.20,539.03 800.10,539.03 802.00,539.03 803.90,539.03 805.80,539.03 807.70,539.02 809.60,539.02 811.50,539.01 813.40,539.00 815.30,538.99 817.20,538.98 819.10,538.97 821.00,538.96 822.90,538.95 824.80,538.93 826.70,538.92 828.60,538.90 830.50,538.88 832.40,538.86 834.30,538.85 836.20,538.83 838.10,538.81 840.00,538.79"/>
  <text x="620" y="378" font-size="13" font-family="Georgia" fill="#1d4ed8">Psi(t)</text>
  <text x="620" y="398" font-size="13" font-family="Georgia" fill="#7c3aed">mean M(t)</text>
</svg>
